<?xml version="1.0" encoding="UTF-8" standalone="no"?>
<!DOCTYPE svg PUBLIC "-//W3C//DTD SVG 1.1//EN" "http://www.w3.org/Graphics/SVG/1.1/DTD/svg11.dtd">
<svg width="100%" height="100%" viewBox="0 0 800 800" version="1.1" xmlns="http://www.w3.org/2000/svg" xmlns:xlink="http://www.w3.org/1999/xlink" xml:space="preserve" xmlns:serif="http://www.serif.com/" style="fill-rule:evenodd;clip-rule:evenodd;stroke-linejoin:round;stroke-miterlimit:1.41421;">
    <rect id="Artboard1" x="0" y="0" width="800" height="800" style="fill:none;"/>
    <g id="Artboard11" serif:id="Artboard1">
        <g transform="matrix(511.997,0,0,-511.997,178.178,406.353)">
            <path d="M0.274,0.659L-0.204,0.383C-0.209,0.299 -0.205,0.118 -0.205,0.025C-0.205,-0.004 -0.182,-0.009 -0.139,-0.033L0.421,-0.359L0.422,-0.69C0.4,-0.681 0.368,-0.66 0.346,-0.647L-0.159,-0.356C-0.165,-0.352 -0.172,-0.347 -0.178,-0.344L-0.179,-0.344L-0.18,-0.252C-0.18,-0.229 -0.178,-0.077 -0.184,-0.069C-0.19,-0.061 -0.197,-0.061 -0.203,-0.069C-0.207,-0.075 -0.205,-0.202 -0.202,-0.346C-0.204,-0.362 -0.19,-0.366 -0.158,-0.384L0.391,-0.701C0.442,-0.731 0.418,-0.735 0.513,-0.681C0.56,-0.653 0.725,-0.555 0.759,-0.54C0.763,-0.443 0.76,-0.28 0.76,-0.176L0.76,0.178C0.76,0.193 0.812,0.217 0.826,0.225L1.048,0.352C1.056,0.142 1.042,-0.126 1.049,-0.333L1.05,-0.345L0.968,-0.393C0.948,-0.405 0.815,-0.48 0.811,-0.489C0.808,-0.497 0.811,-0.504 0.82,-0.505C0.828,-0.505 0.941,-0.438 1.068,-0.362C1.072,-0.359 1.071,-0.358 1.071,-0.354L1.073,0.382L0.765,0.56C0.737,0.576 0.719,0.554 0.689,0.537L0.144,0.221C0.108,0.201 0.104,0.217 0.068,0.238L-0.165,0.374C-0.142,0.401 0.347,0.667 0.431,0.722L0.514,0.674C0.534,0.663 0.664,0.583 0.674,0.584C0.683,0.585 0.687,0.591 0.683,0.6C0.68,0.607 0.57,0.671 0.444,0.743C0.441,0.744 0.439,0.747 0.434,0.748C0.434,0.748 0.434,0.748 0.434,0.748C0.422,0.748 0.293,0.67 0.274,0.659ZM0.446,0.025L0.447,0.352C0.467,0.344 0.5,0.323 0.52,0.311L0.735,0.185L0.735,-0.144C0.721,-0.142 0.453,0.014 0.446,0.025ZM0.133,0.185C0.173,0.213 0.234,0.246 0.278,0.27C0.323,0.295 0.376,0.331 0.421,0.351L0.421,0.02L0.133,-0.144L0.133,0.185ZM0.148,-0.167L0.435,-0.003L0.72,-0.166C0.711,-0.177 0.696,-0.184 0.684,-0.191C0.642,-0.214 0.446,-0.332 0.434,-0.332L0.148,-0.167Z" style="fill:url(#_Linear1);fill-rule:nonzero;"/>
        </g>
    </g>
    <defs>
        <linearGradient id="_Linear1" x1="0" y1="0" x2="1" y2="0" gradientUnits="userSpaceOnUse" gradientTransform="matrix(1,0,0,-1,0,0.0124054)"><stop offset="0" style="stop-color:rgb(0,174,239);stop-opacity:1"/><stop offset="1" style="stop-color:rgb(179,211,52);stop-opacity:1"/></linearGradient>
    </defs>
</svg>
