<?xml version="1.0" encoding="UTF-8" standalone="no"?>
<!DOCTYPE svg PUBLIC "-//W3C//DTD SVG 1.1//EN" "http://www.w3.org/Graphics/SVG/1.1/DTD/svg11.dtd">
<svg width="100%" height="100%" viewBox="0 0 126 126" version="1.1" xmlns="http://www.w3.org/2000/svg" xmlns:xlink="http://www.w3.org/1999/xlink" xml:space="preserve" xmlns:serif="http://www.serif.com/" style="fill-rule:evenodd;clip-rule:evenodd;stroke-linecap:round;stroke-linejoin:round;stroke-miterlimit:1.5;">
    <circle cx="67" cy="65" r="54" style="fill:none;stroke:rgb(64,64,64);stroke-width:3.5px;"/>
    <g id="Layer_1" transform="matrix(0.53603,0,0,0.53603,33.496,31.496)">
        <path d="M83.254,125.008L2.494,125.008C1.134,125.008 0,123.902 0,122.513C0,106.554 1.531,96.973 8.844,89.66C15.732,82.743 27.553,78.35 48.047,72.794L48.047,68.315C41.216,64.772 36.085,56.268 33.704,46.431C32.23,40.365 31.776,33.732 32.627,27.468C33.477,21.09 35.688,15.052 39.487,10.233C44.391,4.054 51.902,0 62.504,0C73.106,0 80.617,4.054 85.521,10.233C89.32,15.052 91.531,21.09 92.381,27.468C93.231,33.732 92.778,40.365 91.304,46.431C88.923,56.268 83.792,64.772 76.961,68.315L76.961,72.794C97.455,78.35 109.276,82.743 116.164,89.66C123.477,96.973 125.008,106.554 125.008,122.513C125.008,123.902 123.874,125.008 122.513,125.008L83.254,125.008ZM5.017,120.019L119.991,120.019C119.849,106.923 118.375,98.901 112.62,93.175C106.328,86.854 94.649,82.687 73.956,77.131C72.822,76.904 71.972,75.912 71.972,74.693L71.972,66.728C71.972,65.735 72.567,64.772 73.559,64.403C79.569,62.05 84.246,54.369 86.457,45.269C87.789,39.77 88.214,33.789 87.449,28.12C86.712,22.592 84.841,17.405 81.609,13.351C77.613,8.306 71.405,4.989 62.504,4.989C53.603,4.989 47.395,8.306 43.398,13.351C40.167,17.405 38.296,22.592 37.559,28.12C36.794,33.789 37.219,39.77 38.551,45.269C40.734,54.312 45.383,61.937 51.335,64.346C52.328,64.687 53.036,65.622 53.036,66.728L53.036,74.693C53.036,75.798 52.299,76.819 51.194,77.102C30.416,82.687 18.709,86.854 12.387,93.175C6.633,98.901 5.159,106.923 5.017,120.019Z" style="fill:rgb(0,174,239);fill-rule:nonzero;"/>
    </g>
</svg>
