<?xml version="1.0" encoding="UTF-8" standalone="no"?>
<!DOCTYPE svg PUBLIC "-//W3C//DTD SVG 1.1//EN" "http://www.w3.org/Graphics/SVG/1.1/DTD/svg11.dtd">
<svg width="100%" height="100%" viewBox="0 0 800 261" version="1.1" xmlns="http://www.w3.org/2000/svg" xmlns:xlink="http://www.w3.org/1999/xlink" xml:space="preserve" xmlns:serif="http://www.serif.com/" style="fill-rule:evenodd;clip-rule:evenodd;stroke-linejoin:round;stroke-miterlimit:1.41421;">
    <g transform="matrix(0.058267,0,0,0.058267,1.13687e-13,0)">
        <g transform="matrix(4.16667,0,0,4.16667,11479.6,722.268)">
            <path d="M0,636.645L163.57,484.787L434.495,488.782L436.668,638.916L294.476,638.916L157.095,638.916L72.719,638.916L0,636.645ZM540.077,-2.271L372.554,-2.271L240.938,-2.271L154.313,-2.271L47.373,-2.271L-11.271,-2.271L-63.638,-2.271L-183.842,-2.271L-187.773,155.417L166.265,154.998L-276.92,638.916L-59.74,638.916L540.077,-2.271Z" style="fill:rgb(124,197,120);"/>
        </g>
        <g transform="matrix(3034.74,0,0,-3034.74,10713,2048.61)">
            <path d="M0.764,0.44L0.583,0.44L0.464,0.44L0.318,0.44L0.237,0.44L0.165,0.44L0,0.44L-0.005,0.224L0.481,0.224L-0.128,-0.44L0.171,-0.44L0.994,0.44L0.764,0.44ZM0.253,-0.437L0.352,-0.44L0.852,-0.44L0.849,-0.234L0.477,-0.229L0.253,-0.437Z" style="fill:url(#_Linear1);fill-rule:nonzero;"/>
        </g>
        <g transform="matrix(3034.74,0,0,-3034.74,626.971,2269.27)">
            <path d="M0.274,0.659L-0.204,0.383C-0.209,0.299 -0.205,0.118 -0.205,0.025C-0.205,-0.004 -0.182,-0.009 -0.139,-0.033L0.421,-0.359L0.422,-0.69C0.4,-0.681 0.368,-0.66 0.346,-0.647L-0.159,-0.356C-0.165,-0.352 -0.172,-0.347 -0.178,-0.344L-0.179,-0.344L-0.18,-0.252C-0.18,-0.229 -0.178,-0.077 -0.184,-0.069C-0.19,-0.061 -0.197,-0.061 -0.203,-0.069C-0.207,-0.075 -0.205,-0.202 -0.202,-0.346C-0.204,-0.362 -0.19,-0.366 -0.158,-0.384L0.391,-0.701C0.442,-0.731 0.418,-0.735 0.513,-0.681C0.56,-0.653 0.725,-0.555 0.759,-0.54C0.763,-0.443 0.76,-0.28 0.76,-0.176L0.76,0.178C0.76,0.193 0.812,0.217 0.826,0.225L1.048,0.352C1.056,0.142 1.042,-0.126 1.049,-0.333L1.05,-0.345L0.968,-0.393C0.948,-0.405 0.815,-0.48 0.811,-0.489C0.808,-0.497 0.811,-0.504 0.82,-0.505C0.828,-0.505 0.941,-0.438 1.068,-0.362C1.072,-0.359 1.071,-0.358 1.071,-0.354L1.073,0.382L0.765,0.56C0.737,0.576 0.719,0.554 0.689,0.537L0.144,0.221C0.108,0.201 0.104,0.217 0.068,0.238L-0.165,0.374C-0.142,0.401 0.347,0.667 0.431,0.722L0.514,0.674C0.534,0.663 0.664,0.583 0.674,0.584C0.683,0.585 0.687,0.591 0.683,0.6C0.68,0.607 0.57,0.671 0.444,0.743C0.441,0.744 0.439,0.747 0.434,0.748C0.434,0.748 0.434,0.748 0.434,0.748C0.422,0.748 0.293,0.67 0.274,0.659ZM0.446,0.025L0.447,0.352C0.467,0.344 0.5,0.323 0.52,0.311L0.735,0.185L0.735,-0.144C0.721,-0.142 0.453,0.014 0.446,0.025ZM0.133,0.185C0.173,0.213 0.234,0.246 0.278,0.27C0.323,0.295 0.376,0.331 0.421,0.351L0.421,0.02L0.133,-0.144L0.133,0.185ZM0.148,-0.167L0.435,-0.003L0.72,-0.166C0.711,-0.177 0.696,-0.184 0.684,-0.191C0.642,-0.214 0.446,-0.332 0.434,-0.332L0.148,-0.167Z" style="fill:url(#_Linear2);fill-rule:nonzero;"/>
        </g>
        <g transform="matrix(4.16667,0,0,4.16667,4541.04,723.375)">
            <path d="M0,636.137L253.211,387.991L364.491,504.23L224.388,628.604L0,636.137ZM566.398,636.769L767.807,638.662L509.269,359.437L625.186,235.331L664.398,-2.525L385.179,246.815L126.63,-2.525C126.63,52.147 117.142,109.642 118.216,163.804L566.398,636.769Z" style="fill:rgb(0,182,196);"/>
        </g>
        <g transform="matrix(4.16667,0,0,4.16667,10228.1,3373.7)">
            <path d="M0,-733.664L213.858,-733.664L-216.308,-303.5L-216.308,-152.643L-236.716,-173.055L-367.162,-303.5L-703.479,-639.818L-489.622,-639.818L-486.071,-636.268L-291.737,-441.932L0,-733.664ZM-368.048,0L-217.192,0L-217.192,-83.43L-368.048,-234.284L-368.048,0Z" style="fill:rgb(4,76,152);"/>
        </g>
        <g transform="matrix(4.16667,0,0,4.16667,12837.7,3937.53)">
            <path d="M0,88.724L19.187,79.86C21.011,86.446 24.357,91.48 29.22,94.935C34.052,98.418 40.262,100.142 47.813,100.142C54.99,100.142 60.646,98.137 64.887,94.17C69.099,90.203 71.205,84.894 71.205,78.237C71.205,69.545 63.992,61.785 49.538,54.99C47.503,53.988 45.953,53.23 44.886,52.776C28.563,44.813 17.7,37.636 12.284,31.188C6.866,24.733 4.14,16.87 4.14,7.587C4.14,-4.479 8.252,-14.246 16.424,-21.732C24.596,-29.219 35.364,-32.941 48.644,-32.941C59.542,-32.941 68.681,-30.836 76.03,-26.63C83.38,-22.418 88.45,-16.38 91.278,-8.519L72.511,1.211C69.546,-3.448 66.3,-6.86 62.751,-9.002C59.195,-11.172 55.128,-12.248 50.54,-12.248C44.092,-12.248 38.913,-10.552 35.119,-7.177C31.289,-3.831 29.392,0.692 29.392,6.347C29.392,15.247 37.773,23.564 54.507,31.217C55.784,31.837 56.779,32.321 57.544,32.63C72.164,39.396 82.204,45.981 87.657,52.401C93.103,58.849 95.829,66.891 95.829,76.513C95.829,90.52 91.415,101.657 82.587,109.901C73.751,118.145 61.821,122.286 46.782,122.286C34.188,122.286 23.874,119.386 15.804,113.594C7.769,107.802 2.488,99.522 0,88.724M-224.534,118.355L-224.534,-35.422L-130.501,54.99C-127.948,57.536 -125.358,60.263 -122.704,63.162C-120.086,66.062 -117.323,69.336 -114.424,72.957L-114.424,-29.63L-92.28,-29.63L-92.28,124.146L-188.139,32.046C-190.692,29.529 -193.181,26.911 -195.561,24.148C-197.97,21.385 -200.213,18.494 -202.392,15.456L-202.392,118.355L-224.534,118.355ZM-318.893,44.676C-318.893,55.192 -320.854,65.131 -324.785,74.479C-328.753,83.856 -334.479,92.208 -342.038,99.558C-349.626,106.901 -358.217,112.527 -367.802,116.421C-377.359,120.324 -387.399,122.286 -397.88,122.286C-408.54,122.286 -418.682,120.324 -428.376,116.385C-438.033,112.418 -446.56,106.835 -453.974,99.558C-461.526,92.208 -467.253,83.892 -471.155,74.58C-475.05,65.304 -477.019,55.329 -477.019,44.676C-477.019,34.08 -475.05,24.112 -471.155,14.764C-467.253,5.38 -461.526,-3.001 -453.974,-10.416C-446.415,-17.765 -437.86,-23.355 -428.311,-27.178C-418.754,-31.008 -408.612,-32.941 -397.88,-32.941C-387.256,-32.941 -377.187,-31.008 -367.629,-27.178C-358.108,-23.355 -349.554,-17.765 -342.038,-10.416C-334.479,-2.929 -328.753,5.518 -324.785,14.902C-320.854,24.321 -318.893,34.217 -318.893,44.676M-343.936,44.676C-343.936,37.189 -345.313,30.084 -348.039,23.355C-350.766,16.625 -354.696,10.624 -359.804,5.38C-364.802,0.173 -370.565,-3.795 -377.114,-6.586C-383.707,-9.384 -390.638,-10.797 -397.88,-10.797C-405.165,-10.797 -412.097,-9.413 -418.682,-6.658C-425.238,-3.895 -431.103,0.108 -436.209,5.38C-441.315,10.559 -445.246,16.524 -447.937,23.253C-450.627,29.976 -451.969,37.117 -451.969,44.676C-451.969,52.156 -450.627,59.231 -447.937,65.889C-445.246,72.546 -441.315,78.511 -436.209,83.754C-431.103,89.035 -425.274,93.037 -418.718,95.792C-412.197,98.555 -405.229,99.933 -397.88,99.933C-390.675,99.933 -383.844,98.555 -377.323,95.792C-370.839,93.037 -364.976,89.035 -359.804,83.754C-354.696,78.511 -350.766,72.546 -348.039,65.853C-345.313,59.123 -343.936,52.09 -343.936,44.676M-596.001,-29.63L-571.989,-29.63L-571.989,118.355L-596.001,118.355L-596.001,-29.63ZM-720.703,-9.139L-720.703,118.355L-744.715,118.355L-744.715,-9.139L-784.039,-9.139L-784.039,-29.63L-681.589,-29.63L-681.589,-9.139L-720.703,-9.139ZM-863.278,118.355L-880.048,80.271L-938.688,80.271L-955.87,118.355L-981.114,118.355L-909.47,-35.422L-837.89,118.355L-863.278,118.355ZM-929.788,60.198L-888.53,60.198L-903.707,26.456C-904.572,24.321 -905.503,21.84 -906.433,19.041C-907.363,16.25 -908.33,13.141 -909.261,9.694C-910.054,12.94 -910.919,15.94 -911.85,18.731C-912.751,21.53 -913.682,24.112 -914.612,26.456L-929.788,60.198ZM-1105.13,124.146L-1171.19,-29.63L-1146.19,-29.63L-1113.04,49.227C-1111.07,53.778 -1109.44,58.019 -1108.17,61.885C-1106.89,65.781 -1105.9,69.473 -1105.13,72.957C-1104.27,69.272 -1103.17,65.442 -1101.82,61.438C-1100.48,57.471 -1098.89,53.403 -1097.06,49.227L-1064.02,-29.63L-1039.15,-29.63L-1105.13,124.146ZM-1242.89,44.676C-1242.89,55.192 -1244.85,65.131 -1248.78,74.479C-1252.75,83.856 -1258.48,92.208 -1266.03,99.558C-1273.62,106.901 -1282.21,112.527 -1291.8,116.421C-1301.36,120.324 -1311.4,122.286 -1321.88,122.286C-1332.54,122.286 -1342.68,120.324 -1352.37,116.385C-1362.03,112.418 -1370.56,106.835 -1377.97,99.558C-1385.52,92.208 -1391.25,83.892 -1395.15,74.58C-1399.05,65.304 -1401.02,55.329 -1401.02,44.676C-1401.02,34.08 -1399.05,24.112 -1395.15,14.764C-1391.25,5.38 -1385.52,-3.001 -1377.97,-10.416C-1370.41,-17.765 -1361.86,-23.355 -1352.31,-27.178C-1342.75,-31.008 -1332.61,-32.941 -1321.88,-32.941C-1311.25,-32.941 -1301.18,-31.008 -1291.63,-27.178C-1282.1,-23.355 -1273.55,-17.765 -1266.03,-10.416C-1258.48,-2.929 -1252.75,5.518 -1248.78,14.902C-1244.85,24.321 -1242.89,34.217 -1242.89,44.676M-1267.93,44.676C-1267.93,37.189 -1269.31,30.084 -1272.04,23.355C-1274.76,16.625 -1278.69,10.624 -1283.8,5.38C-1288.8,0.173 -1294.56,-3.795 -1301.11,-6.586C-1307.7,-9.384 -1314.63,-10.797 -1321.88,-10.797C-1329.16,-10.797 -1336.09,-9.413 -1342.68,-6.658C-1349.23,-3.895 -1355.1,0.108 -1360.2,5.38C-1365.31,10.559 -1369.24,16.524 -1371.93,23.253C-1374.62,29.976 -1375.96,37.117 -1375.96,44.676C-1375.96,52.156 -1374.62,59.231 -1371.93,65.889C-1369.24,72.546 -1365.31,78.511 -1360.2,83.754C-1355.1,89.035 -1349.27,93.037 -1342.71,95.792C-1336.19,98.555 -1329.23,99.933 -1321.88,99.933C-1314.67,99.933 -1307.84,98.555 -1301.32,95.792C-1294.84,93.037 -1288.97,89.035 -1283.8,83.754C-1278.69,78.511 -1274.76,72.546 -1272.04,65.853C-1269.31,59.123 -1267.93,52.09 -1267.93,44.676M-1627.62,118.355L-1627.62,-35.422L-1533.59,54.99C-1531.03,57.536 -1528.44,60.263 -1525.79,63.162C-1523.17,66.062 -1520.41,69.336 -1517.51,72.957L-1517.51,-29.63L-1495.37,-29.63L-1495.37,124.146L-1591.22,32.046C-1593.78,29.529 -1596.27,26.911 -1598.65,24.148C-1601.06,21.385 -1603.3,18.494 -1605.48,15.456L-1605.48,118.355L-1627.62,118.355ZM-1860.64,118.355L-1860.64,-35.422L-1766.61,54.99C-1764.06,57.536 -1761.47,60.263 -1758.81,63.162C-1756.19,66.062 -1753.43,69.336 -1750.53,72.957L-1750.53,-29.63L-1728.39,-29.63L-1728.39,124.146L-1824.25,32.046C-1826.8,29.529 -1829.29,26.911 -1831.67,24.148C-1834.08,21.385 -1836.32,18.494 -1838.5,15.456L-1838.5,118.355L-1860.64,118.355ZM-1986.05,-29.63L-1962.03,-29.63L-1962.03,118.355L-1986.05,118.355L-1986.05,-29.63Z" style="fill:rgb(4,76,152);"/>
        </g>
    </g>
    <defs>
        <linearGradient id="_Linear1" x1="0" y1="0" x2="1" y2="0" gradientUnits="userSpaceOnUse" gradientTransform="matrix(1,0,0,-1,0,-3.92592e-06)"><stop offset="0" style="stop-color:rgb(0,174,239);stop-opacity:1"/><stop offset="1" style="stop-color:rgb(179,211,52);stop-opacity:1"/></linearGradient>
        <linearGradient id="_Linear2" x1="0" y1="0" x2="1" y2="0" gradientUnits="userSpaceOnUse" gradientTransform="matrix(1,0,0,-1,0,0.0124054)"><stop offset="0" style="stop-color:rgb(0,174,239);stop-opacity:1"/><stop offset="1" style="stop-color:rgb(179,211,52);stop-opacity:1"/></linearGradient>
    </defs>
</svg>
